<svg width="1200" height="630" viewBox="0 0 1200 630" fill="none" xmlns="http://www.w3.org/2000/svg">
  <defs>
    <linearGradient id="bg" x1="0" y1="0" x2="1200" y2="630" gradientUnits="userSpaceOnUse">
      <stop offset="0" stop-color="#0F172A"/>
      <stop offset="0.6" stop-color="#131c34"/>
      <stop offset="1" stop-color="#0d3b30"/>
    </linearGradient>
    <radialGradient id="glow" cx="0.8" cy="0.1" r="0.8">
      <stop offset="0" stop-color="#34D399" stop-opacity="0.25"/>
      <stop offset="1" stop-color="#34D399" stop-opacity="0"/>
    </radialGradient>
  </defs>
  <rect width="1200" height="630" fill="url(#bg)"/>
  <rect width="1200" height="630" fill="url(#glow)"/>
  <!-- mark -->
  <g transform="translate(96,150)">
    <rect width="150" height="150" rx="34" fill="#0B1020"/>
    <circle cx="51" cy="96" r="24" fill="#F59E0B" opacity="0.22"/>
    <circle cx="51" cy="96" r="13.5" fill="#F59E0B" opacity="0.5"/>
    <circle cx="99" cy="60" r="30" fill="#B91C1C" opacity="0.22"/>
    <circle cx="99" cy="60" r="18" fill="#B91C1C" opacity="0.42"/>
    <circle cx="99" cy="60" r="10" fill="#EF4444" opacity="0.9"/>
    <path d="M75 129 C75 105 60 87 60 69 C60 49.5 81 45 90 36" stroke="#34D399" stroke-width="12" stroke-linecap="round" fill="none"/>
    <path d="M90 36 l13.5 4.5 M90 36 l-1.5 13.5" stroke="#34D399" stroke-width="12" stroke-linecap="round" fill="none"/>
  </g>
  <text x="280" y="250" font-family="Sora, sans-serif" font-size="92" font-weight="800" fill="#ffffff" letter-spacing="-3">Tsamaya</text>
  <text x="282" y="312" font-family="Sora, sans-serif" font-size="40" font-weight="700" fill="#34D399">Go well.</text>
  <text x="96" y="430" font-family="Inter, sans-serif" font-size="40" fill="#c6d0ec">Driving routes that think about <tspan fill="#ffffff" font-weight="600">risk</tspan>, not just speed —</text>
  <text x="96" y="486" font-family="Inter, sans-serif" font-size="40" fill="#c6d0ec">for South African metros.</text>
  <text x="96" y="566" font-family="Inter, sans-serif" font-size="26" fill="#8c97bd">Lower-risk routes · Johannesburg · Pretoria · Cape Town · East Rand · Secunda</text>
</svg>
